<svg viewBox="0 0 140 140" xmlns="http://www.w3.org/2000/svg" role="img" aria-label="AnswerRank logo mark">
  <defs>
    <linearGradient id="grad" x1="0%" y1="100%" x2="100%" y2="0%">
      <stop offset="0%" stop-color="#7B2FBE"/>
      <stop offset="100%" stop-color="#3ECFCF"/>
    </linearGradient>
  </defs>
  <rect x="14" y="78" width="16" height="34" rx="4" fill="url(#grad)"/>
  <rect x="38" y="58" width="16" height="54" rx="4" fill="url(#grad)"/>
  <rect x="62" y="34" width="16" height="78" rx="4" fill="url(#grad)"/>
  <path d="M84 34 h30 a12 12 0 0 1 12 12 v22 a12 12 0 0 1 -12 12 h-6 l-8 10 v-10 h-16 a12 12 0 0 1 -12 -12 v-22 a12 12 0 0 1 12 -12 z" fill="#3ECFCF"/>
  <circle cx="94" cy="57" r="3" fill="#1A1A2E"/>
  <circle cx="106" cy="57" r="3" fill="#1A1A2E"/>
  <circle cx="118" cy="57" r="3" fill="#1A1A2E"/>
</svg>
